<?xml version="1.0" standalone="no"?><!DOCTYPE svg PUBLIC "-//W3C//DTD SVG 1.1//EN" "http://www.w3.org/Graphics/SVG/1.1/DTD/svg11.dtd"><svg t="1624328496756" class="icon" viewBox="0 0 1024 1024" version="1.1" xmlns="http://www.w3.org/2000/svg" p-id="3375" xmlns:xlink="http://www.w3.org/1999/xlink" width="200" height="200"><defs><style type="text/css"></style></defs><path d="M209 192v641h641V192H209z m-18-36h677c9.941 0 18 8.059 18 18v677c0 9.941-8.059 18-18 18H191c-9.941 0-18-8.059-18-18V174c0-9.941 8.059-18 18-18z" fill="#ffffff" p-id="3376"></path><path d="M686.45 337.825c7.03-7.03 18.427-7.03 25.456 0 7.03 7.03 7.03 18.427 0 25.456L551.741 523.446c-7.03 7.03-18.427 7.03-25.456 0L366.119 363.281c-7.029-7.03-7.029-18.426 0-25.456 7.03-7.03 18.427-7.03 25.456 0l147.438 147.438L686.45 337.825z" fill="#ffffff" p-id="3377"></path><path d="M385.974 528.718c-9.941 0-18-8.058-18-18 0-9.94 8.059-18 18-18h299.49c9.942 0 18 8.06 18 18 0 9.942-8.058 18-18 18h-299.49zM385.974 642.74c-9.941 0-18-8.06-18-18 0-9.942 8.059-18 18-18h299.49c9.942 0 18 8.058 18 18 0 9.94-8.058 18-18 18h-299.49z" fill="#ffffff" p-id="3378"></path><path d="M521.82 510.718c0-9.94 8.06-18 18-18 9.942 0 18 8.06 18 18v227.043c0 9.941-8.058 18-18 18-9.94 0-18-8.059-18-18V510.718z" fill="#ffffff" p-id="3379"></path></svg>