<?xml version="1.0" standalone="no"?><!DOCTYPE svg PUBLIC "-//W3C//DTD SVG 1.1//EN" "http://www.w3.org/Graphics/SVG/1.1/DTD/svg11.dtd"><svg t="1624330831781" class="icon" viewBox="0 0 1024 1024" version="1.1" xmlns="http://www.w3.org/2000/svg" p-id="6251" xmlns:xlink="http://www.w3.org/1999/xlink" width="64" height="64"><defs><style type="text/css"></style></defs><path d="M511.460053 0C229.337604 0 0.619939 228.717664 0.619939 510.840113c0 282.132448 228.717664 510.850112 510.840114 510.850113 282.132448 0 510.850112-228.717664 510.850112-510.850113C1022.310165 228.717664 793.592501 0 511.460053 0z m0 952.037028c-243.646206 0-441.186915-197.540709-441.186916-441.186916 0-243.646206 197.540709-441.186915 441.186916-441.186915 243.656205 0 441.186915 197.540709 441.186915 441.186915 0 243.646206-197.53071 441.186915-441.186915 441.186916z m198.430622-684.903115l0.029997 0.029997-169.073489 169.073489v18.138228h146.275715c16.368402 0 29.227146 12.848745 29.227146 29.227146 0 16.398399-12.858744 29.257143-29.227146 29.257143H540.847183v117.018572h146.275715c16.368402 0 29.227146 12.858744 29.227146 29.257143 0 16.398399-12.858744 29.257143-29.227146 29.257143H540.847183v87.681438c0 16.398399-12.858744 29.257143-29.257143 29.257142-16.368402 0-29.227146-12.858744-29.227146-29.257142V688.33278H336.097178c-16.398399 0-29.257143-12.878742-29.257143-29.257143 0-16.398399 12.888741-29.257143 29.257143-29.257143h146.275715V512.799922H336.097178c-16.398399 0-29.257143-12.858744-29.257143-29.257143 0-16.368402 12.888741-29.227146 29.257143-29.227146h146.245718v-19.318113L315.039234 267.683859a27.207343 27.207343 0 0 1-8.339185-19.598086c0-7.399277 3.009706-14.468587 8.339185-19.598086a27.207343 27.207343 0 0 1 19.598087-8.339186c7.399277 0 14.468587 3.009706 19.598086 8.339186l156.724695 156.844683L669.514618 226.777854c11.15891-11.118914 29.207148-11.118914 40.366058 0 11.148911 11.108915 11.148911 29.217147 0.009999 40.356059z" p-id="6252" fill="#ffffff"></path></svg>