<?xml version="1.0" standalone="no"?><!DOCTYPE svg PUBLIC "-//W3C//DTD SVG 1.1//EN" "http://www.w3.org/Graphics/SVG/1.1/DTD/svg11.dtd"><svg t="1624328628955" class="icon" viewBox="0 0 1024 1024" version="1.1" xmlns="http://www.w3.org/2000/svg" p-id="4327" xmlns:xlink="http://www.w3.org/1999/xlink" width="200" height="200"><defs><style type="text/css"></style></defs><path d="M512 178.2l345.7 245.5c4 2.9 8.7 4.3 13.3 4.3 7.2 0 14.3-3.4 18.8-9.7 7.4-10.4 4.9-24.7-5.4-32.1l-359-255c-8-5.7-18.7-5.7-26.6 0L241 314.3c-2.3 1.1-4.4 2.6-6.2 4.4l-95.1 67.5a22.95 22.95 0 0 0-5.4 32.1 22.95 22.95 0 0 0 32.1 5.4l61.7-43.8V876c0 12.7 10.3 23 23 23s23-10.3 23-23V347.3L512 178.2z" p-id="4328" fill="#ffffff"></path><path d="M893.8 614.6c-1-7-5.2-13-11.1-16.4L749.4 462.5c-8.9-9.1-23.5-9.2-32.5-0.3-9.1 8.9-9.2 23.5-0.3 32.5L815.1 595H473c-12.7 0-23 10.3-23 23s10.3 23 23 23h343.4l-102 100.2c-9.1 8.9-9.2 23.5-0.3 32.5 4.5 4.6 10.5 6.9 16.4 6.9 5.8 0 11.6-2.2 16.1-6.6l140.8-138.2c5.8-5.7 7.9-13.7 6.4-21.2z" p-id="4329" fill="#ffffff"></path></svg>