<svg xmlns="http://www.w3.org/2000/svg" width="53.908" height="53.908" viewBox="0 0 53.908 53.908"><g transform="translate(-6.108)"><g transform="translate(6.108)"><g fill="none"><path d="M26.954,0A26.954,26.954,0,1,1,0,26.954,26.954,26.954,0,0,1,26.954,0Z" stroke="none"/><path d="M 26.95377922058105 2 C 23.58415985107422 2 20.31639862060547 2.659500122070313 17.24126052856445 3.960170745849609 C 14.27001953125 5.216899871826172 11.60115051269531 7.016437530517578 9.308788299560547 9.308788299560547 C 7.016437530517578 11.60115051269531 5.216899871826172 14.27001953125 3.960170745849609 17.24126052856445 C 2.659500122070313 20.31639862060547 2 23.58415985107422 2 26.95377922058105 C 2 30.32339859008789 2.659500122070313 33.59115982055664 3.960170745849609 36.66629791259766 C 5.216899871826172 39.63753890991211 7.016437530517578 42.3064079284668 9.308788299560547 44.59877014160156 C 11.60115051269531 46.89112091064453 14.27001953125 48.69065856933594 17.24126052856445 49.9473876953125 C 20.31639862060547 51.2480583190918 23.58415985107422 51.90755844116211 26.95377922058105 51.90755844116211 C 30.32339859008789 51.90755844116211 33.59115982055664 51.2480583190918 36.66629791259766 49.9473876953125 C 39.63753890991211 48.69065856933594 42.3064079284668 46.89112091064453 44.59877014160156 44.59877014160156 C 46.89112091064453 42.3064079284668 48.69065856933594 39.63753890991211 49.9473876953125 36.66629791259766 C 51.2480583190918 33.59115982055664 51.90755844116211 30.32339859008789 51.90755844116211 26.95377922058105 C 51.90755844116211 23.58415985107422 51.2480583190918 20.31639862060547 49.9473876953125 17.24126052856445 C 48.69065856933594 14.27001953125 46.89112091064453 11.60115051269531 44.59877014160156 9.308788299560547 C 42.3064079284668 7.016437530517578 39.63753890991211 5.216899871826172 36.66629791259766 3.960170745849609 C 33.59115982055664 2.659500122070313 30.32339859008789 2 26.95377922058105 2 M 26.95377922058105 0 C 41.83993911743164 0 53.90755844116211 12.06761932373047 53.90755844116211 26.95377922058105 C 53.90755844116211 41.83993911743164 41.83993911743164 53.90755844116211 26.95377922058105 53.90755844116211 C 12.06761932373047 53.90755844116211 0 41.83993911743164 0 26.95377922058105 C 0 12.06761932373047 12.06761932373047 0 26.95377922058105 0 Z" stroke="none" fill="#0686d8"/></g><g transform="translate(11.754 11.754)"><path d="M119.825,127.436l-10.068-7.553L123.629,100.8l-17.866,16.081L97,110.316,127.436,97Z" transform="translate(-97 -97)" fill="#0686d8"/><path d="M285.28,664.3l5.616,4.2L284.84,672.5Z" transform="translate(-277.952 -643.497)" fill="#5fb0e5"/><path d="M353.826,200.74,335.96,216.821l3.994,3Z" transform="translate(-327.198 -196.936)" fill="#d2e9f7"/></g></g></g></svg>