<svg xmlns="http://www.w3.org/2000/svg" xmlns:xlink="http://www.w3.org/1999/xlink" width="70" height="70" viewBox="0 0 70 70"><defs><filter id="a" x="25.858" y="21.131" width="25.041" height="25.04" filterUnits="userSpaceOnUse"><feOffset dy="3" input="SourceAlpha"/><feGaussianBlur stdDeviation="3" result="b"/><feFlood flood-opacity="0.161"/><feComposite operator="in" in2="b"/><feComposite in="SourceGraphic"/></filter><filter id="c" x="18.136" y="28.853" width="25.04" height="25.04" filterUnits="userSpaceOnUse"><feOffset dy="3" input="SourceAlpha"/><feGaussianBlur stdDeviation="3" result="d"/><feFlood flood-opacity="0.161"/><feComposite operator="in" in2="d"/><feComposite in="SourceGraphic"/></filter></defs><g transform="translate(-0.022 -0.476)"><g transform="translate(0.022 0.476)" fill="none" stroke="#0686d8" stroke-width="2"><circle cx="35" cy="35" r="35" stroke="none"/><circle cx="35" cy="35" r="34" fill="none"/></g><g transform="translate(27.159 27.607)"><path d="M71.428,71.971a1.574,1.574,0,0,1-1.574,1.574H65.962a1.574,1.574,0,0,1-1.574-1.574V68.079A1.574,1.574,0,0,1,65.962,66.5h3.892a1.574,1.574,0,0,1,1.574,1.574Zm-.908-3.892a.666.666,0,0,0-.666-.666H65.962a.666.666,0,0,0-.666.666v3.892a.666.666,0,0,0,.666.666h3.892a.666.666,0,0,0,.666-.666Z" transform="translate(-64.388 -66.505)" fill="#0686d8"/><path d="M160.828,178.28a.227.227,0,0,1-.227-.227v-.409a1.1,1.1,0,0,1,1-1.181h1.415a.227.227,0,0,1,0,.454H161.6c-.354,0-.542.391-.542.726v.409A.227.227,0,0,1,160.828,178.28Z" transform="translate(-159.011 -174.646)" fill="#0686d8"/><path d="M155.594,306.7a.228.228,0,1,1,.227-.227.229.229,0,0,1-.227.227Z" transform="translate(-153.864 -302.283)" fill="#0686d8"/><g transform="matrix(1, 0, 0, 1, -27.14, -27.13)" filter="url(#a)"><path d="M538.755,71.971a1.574,1.574,0,0,1-1.574,1.574h-3.892a1.574,1.574,0,0,1-1.574-1.574V68.079a1.574,1.574,0,0,1,1.574-1.574h3.892a1.574,1.574,0,0,1,1.574,1.574Zm-.909-3.892a.666.666,0,0,0-.666-.666h-3.892a.666.666,0,0,0-.666.666v3.892a.666.666,0,0,0,.666.666h3.892a.666.666,0,0,0,.666-.666Z" transform="translate(-496.86 -39.37)" fill="#0686d8"/></g><g transform="matrix(1, 0, 0, 1, -27.14, -27.13)" filter="url(#c)"><path d="M71.428,539.3a1.574,1.574,0,0,1-1.574,1.574H65.962a1.574,1.574,0,0,1-1.574-1.574v-3.892a1.574,1.574,0,0,1,1.574-1.574h3.892a1.574,1.574,0,0,1,1.574,1.574Zm-.908-3.892a.666.666,0,0,0-.666-.666H65.962a.666.666,0,0,0-.666.666V539.3a.666.666,0,0,0,.666.666h3.892a.666.666,0,0,0,.666-.666Z" transform="translate(-37.25 -498.98)" fill="#0686d8"/></g><path d="M538.755,539.3a1.574,1.574,0,0,1-1.574,1.574h-3.892a1.574,1.574,0,0,1-1.574-1.574v-3.892a1.574,1.574,0,0,1,1.574-1.574h3.892a1.574,1.574,0,0,1,1.574,1.574Zm-.909-3.892a.666.666,0,0,0-.666-.666h-3.892a.666.666,0,0,0-.666.666V539.3a.666.666,0,0,0,.666.666h3.892a.666.666,0,0,0,.666-.666Z" transform="translate(-523.992 -526.11)" fill="#0686d8"/></g></g></svg>