<svg xmlns="http://www.w3.org/2000/svg" width="15" height="15" viewBox="0 0 15 15"><g transform="translate(-71.162 -83.441)"><path d="M81.62,120.035a4.612,4.612,0,0,1-1.035-.107,5.567,5.567,0,0,1-2.182-.867,18.518,18.518,0,0,1-2.825-2.108,17.893,17.893,0,0,1-2.66-2.939,9.149,9.149,0,0,1-1.591-3.422,4.817,4.817,0,0,1,.548-3.958,3.032,3.032,0,0,1,2.1-1.161h.035a3.465,3.465,0,0,1,1.1.241,2.993,2.993,0,0,1,1.7,1.635,2.179,2.179,0,0,1,.078,1.68,4.193,4.193,0,0,1-.722,1.153,3.69,3.69,0,0,0-.591.911,1.108,1.108,0,0,0,.2.518,6.432,6.432,0,0,0,.765,1.027,14.5,14.5,0,0,0,2.165,1.983,3.58,3.58,0,0,0,1.6.84,4.745,4.745,0,0,0,2.3-1.153,1.186,1.186,0,0,1,.835-.277,2.825,2.825,0,0,1,2.452,1.206,2.337,2.337,0,0,1,.217,1.581,3.164,3.164,0,0,1-.235.75l-.009.027-.017.027a4.86,4.86,0,0,1-3.4,2.35A5.827,5.827,0,0,1,81.62,120.035Zm-.835-1.153a4.084,4.084,0,0,0,1.547.027,3.746,3.746,0,0,0,2.626-1.832,1.621,1.621,0,0,0,.035-1.3,2.041,2.041,0,0,0-1.608-.679.172.172,0,0,0-.113.036,5.5,5.5,0,0,1-2.912,1.4h-.043a5.451,5.451,0,0,1-2.626-1.367,13.541,13.541,0,0,1-2.53-2.6,2.1,2.1,0,0,1-.539-1.849,4.9,4.9,0,0,1,.756-1.215c.53-.67.791-1.045.5-1.724a1.925,1.925,0,0,0-1.13-1.063,2.248,2.248,0,0,0-.73-.17,1.912,1.912,0,0,0-1.321.759,3.882,3.882,0,0,0-.339,3.073c.348,1.76,1.774,3.86,3.9,5.78a17.352,17.352,0,0,0,2.66,1.983,4.548,4.548,0,0,0,1.739.724h.061Z" transform="translate(0 -21.594)" fill="#2e77ed"/><path d="M516.26,262.9H516.2a.605.605,0,0,1-.549-.66,3.54,3.54,0,0,0-.742-2.784,4.388,4.388,0,0,0-2.845-1.24.6.6,0,0,1,.03-1.209,5.618,5.618,0,0,1,3.719,1.646,4.693,4.693,0,0,1,1.036,3.709A.6.6,0,0,1,516.26,262.9Z" transform="translate(-433.398 -170.744)" fill="#ffbb12"/><path d="M527.992,91.936h-.071a.608.608,0,0,1-.528-.681,5.488,5.488,0,0,0-1.138-4.522c-1.9-2.114-5.426-2.073-5.456-2.073a.61.61,0,1,1-.02-1.219,10.348,10.348,0,0,1,2.317.274,9.574,9.574,0,0,1,2.073.721,6.468,6.468,0,0,1,2,1.484,6.6,6.6,0,0,1,1.443,5.487A.632.632,0,0,1,527.992,91.936Z" transform="translate(-442.637)" fill="#ffbb12"/></g></svg>