<svg xmlns="http://www.w3.org/2000/svg" width="14.016" height="14.028" viewBox="0 0 14.016 14.028"><path d="M12.009,7.823a.461.461,0,0,0,.489.489.466.466,0,0,0,.489-.489A2.97,2.97,0,0,0,10.03,4.865a.461.461,0,0,0-.489.489.461.461,0,0,0,.489.489A2,2,0,0,1,12.009,7.823Zm1.968,0a.461.461,0,0,0,.489.489.466.466,0,0,0,.489-.489A4.943,4.943,0,0,0,10.029,2.9a.461.461,0,0,0-.489.489.461.461,0,0,0,.489.489,3.963,3.963,0,0,1,3.948,3.948ZM7.319,6.1a1.447,1.447,0,0,0,.1-1.969L5.893,2.2a1.471,1.471,0,0,0-2.068-.246c-.045.045-.1.045-.1.1L2.392,3.385c-1.279,1.279.544,4.736,3.847,8.04s6.705,5.081,7.983,3.847l1.333-1.333a1.43,1.43,0,0,0,0-2.068l-.1-.1-1.921-1.525a1.447,1.447,0,0,0-1.969.1l-.834.834A12.6,12.6,0,0,1,8.362,9.355,12.6,12.6,0,0,1,6.538,6.987Zm-.69-1.333a.474.474,0,0,1-.045.645L5.495,6.543a.526.526,0,0,0-.1.59,12.876,12.876,0,0,0,2.169,2.912,12.635,12.635,0,0,0,2.912,2.169.524.524,0,0,0,.59-.1L12.2,10.979a.461.461,0,0,1,.645-.045l1.924,1.579a.044.044,0,0,1,.045.045.474.474,0,0,1,.018.672l-.018.018-1.333,1.333c-.645.645-3.693-.989-6.6-3.847S2.392,4.765,3.036,4.12L4.415,2.742a.484.484,0,0,1,.69.1Z" transform="translate(-1.98 -1.636)" fill="#fff"/></svg>