<svg xmlns="http://www.w3.org/2000/svg" xmlns:xlink="http://www.w3.org/1999/xlink" width="70" height="70" viewBox="0 0 70 70"><defs><filter id="a" x="3.5" y="6.5" width="63" height="63" filterUnits="userSpaceOnUse"><feOffset dy="3" input="SourceAlpha"/><feGaussianBlur stdDeviation="3" result="b"/><feFlood flood-opacity="0.161"/><feComposite operator="in" in2="b"/><feComposite in="SourceGraphic"/></filter></defs><g fill="#fff"><path d="M 35 69 C 30.40958976745605 69 25.9570198059082 68.10118103027344 21.7659797668457 66.32852172851563 C 17.71739959716797 64.61611938476563 14.08119964599609 62.16445159912109 10.95837020874023 59.04162979125977 C 7.835549831390381 55.91880035400391 5.383880138397217 52.28260040283203 3.671479940414429 48.2340202331543 C 1.898820042610168 44.0429801940918 1 39.59040832519531 1 35 C 1 30.40958976745605 1.898820042610168 25.9570198059082 3.671479940414429 21.7659797668457 C 5.383880138397217 17.71739959716797 7.835549831390381 14.08119964599609 10.95837020874023 10.95837020874023 C 14.08119964599609 7.835549831390381 17.71739959716797 5.383880138397217 21.7659797668457 3.671479940414429 C 25.9570198059082 1.898820042610168 30.40958976745605 1 35 1 C 39.59040832519531 1 44.0429801940918 1.898820042610168 48.2340202331543 3.671479940414429 C 52.28260040283203 5.383880138397217 55.91880035400391 7.835549831390381 59.04162979125977 10.95837020874023 C 62.16445159912109 14.08119964599609 64.61611938476563 17.71739959716797 66.32852172851563 21.7659797668457 C 68.10118103027344 25.9570198059082 69 30.40958976745605 69 35 C 69 39.59040832519531 68.10118103027344 44.0429801940918 66.32852172851563 48.2340202331543 C 64.61611938476563 52.28260040283203 62.16445159912109 55.91880035400391 59.04162979125977 59.04162979125977 C 55.91880035400391 62.16445159912109 52.28260040283203 64.61611938476563 48.2340202331543 66.32852172851563 C 44.0429801940918 68.10118103027344 39.59040832519531 69 35 69 Z" stroke="none"/><path d="M 35 2 C 30.54414367675781 2 26.2226448059082 2.872230529785156 22.15552139282227 4.592475891113281 C 18.22614288330078 6.254467010498047 14.6967887878418 8.634166717529297 11.66547775268555 11.66547775268555 C 8.634166717529297 14.6967887878418 6.254467010498047 18.22614288330078 4.592475891113281 22.15552139282227 C 2.872230529785156 26.2226448059082 2 30.54414367675781 2 35 C 2 39.45585632324219 2.872230529785156 43.7773551940918 4.592475891113281 47.84447860717773 C 6.254467010498047 51.77385711669922 8.634166717529297 55.3032112121582 11.66547775268555 58.33452224731445 C 14.6967887878418 61.3658332824707 18.22614288330078 63.74553298950195 22.15552139282227 65.40752410888672 C 26.2226448059082 67.12776947021484 30.54414367675781 68 35 68 C 39.45585632324219 68 43.7773551940918 67.12776947021484 47.84447860717773 65.40752410888672 C 51.77385711669922 63.74553298950195 55.3032112121582 61.3658332824707 58.33452224731445 58.33452224731445 C 61.3658332824707 55.3032112121582 63.74553298950195 51.77385711669922 65.40752410888672 47.84447860717773 C 67.12776947021484 43.7773551940918 68 39.45585632324219 68 35 C 68 30.54414367675781 67.12776947021484 26.2226448059082 65.40752410888672 22.15552139282227 C 63.74553298950195 18.22614288330078 61.3658332824707 14.6967887878418 58.33452224731445 11.66547775268555 C 55.3032112121582 8.634166717529297 51.77385711669922 6.254467010498047 47.84447860717773 4.592475891113281 C 43.7773551940918 2.872230529785156 39.45585632324219 2 35 2 M 35 0 C 54.3299674987793 0 70 15.6700325012207 70 35 C 70 54.3299674987793 54.3299674987793 70 35 70 C 15.6700325012207 70 0 54.3299674987793 0 35 C 0 15.6700325012207 15.6700325012207 0 35 0 Z" stroke="none" fill="#0686d8"/></g><g transform="matrix(1, 0, 0, 1, 0, 0)" filter="url(#a)"><path d="M96.708,65.7a6.962,6.962,0,0,1,2.863.681L73.5,92.626h-.075l-3.691.227Q83.219,79.271,96.708,65.7Zm5.5,1.966L75.46,94.516l.829,3.479c.557.595,2.938.877,3.842.983q8.776-8.847,17.557-17.7l9.266-9.3Zm6.1,6.957-26.37,26.4.226,3.327h.075l26.6-26.775A4.077,4.077,0,0,0,108.309,74.623ZM71.392,95.5h1.582l.979,4.991,5.348,1.134.226,4.915-7.985,2.5c-1.15-2.379-3.42-5.122-6.026-5.974L68,95.651Zm-6.785,10.209c-.728,1.689-1.6,5.586,1.883,4.915l2.411-.756A8.93,8.93,0,0,0,64.607,105.708Z" transform="translate(-51.45 -53.2)" fill="#0686d8"/></g></svg>