<svg xmlns="http://www.w3.org/2000/svg" width="40.75" height="44" viewBox="0 0 40.75 44"><path d="M225.171,199.092h-32.1A2.077,2.077,0,0,1,191,197.019v-4.23h3.152v3.152h29.94V162.966l-2.822-.015.02-3.152,3.89.02a2.078,2.078,0,0,1,2.068,2.073v35.126a2.084,2.084,0,0,1-2.078,2.073Z" transform="translate(-186.499 -155.092)" fill="#fff"/><path d="M132.8,64.2H101.176A1.58,1.58,0,0,0,99.6,65.776v34.545a1.58,1.58,0,0,0,1.576,1.576H132.8a1.58,1.58,0,0,0,1.576-1.576V65.776A1.58,1.58,0,0,0,132.8,64.2Zm-2.516,30.738a1.58,1.58,0,0,1-1.576,1.576h-23.44a1.576,1.576,0,0,1,0-3.152h23.44A1.58,1.58,0,0,1,130.284,94.938Zm0-7.623a1.58,1.58,0,0,1-1.576,1.576h-23.44a1.576,1.576,0,1,1,0-3.152h23.44A1.58,1.58,0,0,1,130.284,87.315Zm0-7.628a1.58,1.58,0,0,1-1.576,1.576h-23.44a1.576,1.576,0,0,1,0-3.152h23.44A1.58,1.58,0,0,1,130.284,79.687Zm0-7.249a1.2,1.2,0,0,1-1.2,1.2H116.112a1.2,1.2,0,0,1-1.2-1.2v-.753a1.2,1.2,0,0,1,1.2-1.2h12.976a1.2,1.2,0,0,1,1.2,1.2Z" transform="translate(-99.6 -64.2)" fill="#fff"/></svg>