<svg xmlns="http://www.w3.org/2000/svg" width="46.873" height="45.686" viewBox="0 0 46.873 45.686"><path d="M128.615,127.853a19.93,19.93,0,0,1-11.7,16.9,8.2,8.2,0,1,1-.874-4.325,15.659,15.659,0,0,0,8.172-11.5,10.5,10.5,0,0,0,4.4-1.074Zm-19.88,11.622a4.687,4.687,0,1,0,4.251,6.662l.043-.1.094-.226a4.648,4.648,0,0,0,.184-.616l-.018.075c.018-.075.035-.15.048-.226l-.03.151q.031-.137.054-.275l-.023.124c.016-.083.03-.169.042-.254l-.019.129c.012-.081.023-.163.033-.246l-.014.117a4.676,4.676,0,0,0,.042-.632l-.008-.281q-.008-.141-.025-.281l.02.206q-.01-.133-.028-.265l.008.059a4.67,4.67,0,0,0-.125-.648l.019.07q-.033-.13-.073-.258l.054.188q-.034-.128-.075-.254l.021.066q-.04-.128-.088-.254l.067.189q-.044-.133-.095-.262l.028.074a4.658,4.658,0,0,0-.28-.606l.04.074q-.058-.111-.122-.218l.082.144A4.686,4.686,0,0,0,108.736,139.475ZM93.5,110.182a8.2,8.2,0,1,1-.419,16.394v.01a15.628,15.628,0,0,0,6.357,12.593,10.607,10.607,0,0,0-1.23,4.321,19.906,19.906,0,0,1-9.394-16.914q0-.724.05-1.435A8.2,8.2,0,0,1,93.5,110.182Zm15.233-3.515a19.828,19.828,0,0,1,12.133,4.121,8.2,8.2,0,1,1-3.511,2.738,15.662,15.662,0,0,0-15.19-1.15,10.569,10.569,0,0,0-3.321-3.085,19.821,19.821,0,0,1,9.888-2.625Zm-15.317,16.4.029,0-.018,0Zm-.1,0,.041,0h.061Zm-.056,0,.042,0h.014Zm-.184-.013.025,0h-.009Zm-.105-.009h0Zm-1.419-.395.034.015-.03-.014Zm-.087-.041.075.035.012.006-.012-.006-.013-.006Zm-.8-.492.114.083.037.028-.1-.073Zm-.035-.028.016.013h0Zm29.541-6.448-.036.052.028-.039.008-.013Zm1.28-1.207-.066.043.033-.022Zm1.514-.626-.033.007.019,0Zm.128-.026-.02,0,.021,0Zm.018,0h0Zm.366-.053-.128.015-.111.015.118-.016ZM93.195,123.06h0l-.033,0Zm-.2-.018h-.007l.038,0Zm-1.264-.32-.014-.006-.056-.023.115.047Zm-.693-.353.018.012.03.018Zm-.164-.107h0l-.057-.038Zm2.372.8h0Zm28.683-8.9.019-.008.009,0Zm.862-.315.012,0,.009,0Zm.309-.068h0Zm-.3.064-.011,0,.091-.023q-.125.03-.248.067l.1-.028-.123.035-.091.028-.111.039a4.654,4.654,0,0,0-.453.186l.037-.018-.047.021-.022.011-.007,0-.018.011-.041.02-.086.044h0l-.107.059.1-.054-.1.055-.061.034-.047.028.009,0-.011.006-.105.066-.032.02-.052.035-.029.019-.095.067-.073.053-.021.016a4.819,4.819,0,0,0-.425.362l-.036.035-.047.047-.061.062-.019.021-.022.022-.055.061-.042.047-.008.009-.023.028-.075.09-.042.05-.03.041,0,0-.074.1-.021.03-.135.2a4.687,4.687,0,1,0,3.942-2.15h-.047l-.216.007-.062,0q-.146.01-.292.029l-.117.016-.087.015.07-.012-.071.012-.027,0-.015,0h-.014L123,113.8l.052-.011L123,113.8l-.053.011-.066.015.047-.012-.059.013-.023.007-.026.006-.011,0h0l-.011,0Zm-29.557,9.22.185.006.073,0a4.687,4.687,0,1,0-3.861-2.029l.162.223c.047.059.094.117.143.173l0,0,.082.094-.066-.076.1.117c.041.045.084.089.129.132l.012.013.027.026.03.029.073.068.027.025.03.027-.029-.027.071.063-.014-.012.014.012.021.019.055.046.026.021.086.068-.034-.026.034.027.014.011.021.016-.019-.015.07.054.157.11h0l0,0,.041.028.088.056.032.02-.086-.055.151.095.093.054.076.043.043.022.055.029.1.047.061.029.013.006.015.007.105.047.041.018.014,0,.014.006.042.018.112.043-.066-.025a4.507,4.507,0,0,0,.531.169l.275.061c.082.015.164.029.246.04l-.035,0,.115.014.029,0h.014l.02,0,.062,0-.056-.006.072.008h.023l.077.006h0l.036,0h.014Z" transform="translate(-85.299 -106.667)" fill="#fff"/></svg>