<svg xmlns="http://www.w3.org/2000/svg" xmlns:xlink="http://www.w3.org/1999/xlink" width="71.739" height="76.957" viewBox="0 0 71.739 76.957"><defs><filter id="a" x="0" y="0" width="71.739" height="76.957" filterUnits="userSpaceOnUse"><feOffset dy="3" input="SourceAlpha"/><feGaussianBlur stdDeviation="5" result="b"/><feFlood flood-opacity="0.161"/><feComposite operator="in" in2="b"/><feComposite in="SourceGraphic"/></filter><filter id="c" x="34.826" y="6" width="30.913" height="30.913" filterUnits="userSpaceOnUse"><feOffset dy="3" input="SourceAlpha"/><feGaussianBlur stdDeviation="3" result="d"/><feFlood flood-opacity="0.161"/><feComposite operator="in" in2="d"/><feComposite in="SourceGraphic"/></filter></defs><g transform="translate(0.87 0.478)"><g transform="translate(0)" fill="none"><path d="M35,0A35,35,0,1,1,0,35,35,35,0,0,1,35,0Z" stroke="none"/><path d="M 35 2 C 30.54414367675781 2 26.2226448059082 2.872230529785156 22.15552139282227 4.592475891113281 C 18.22614288330078 6.254467010498047 14.6967887878418 8.634166717529297 11.66547775268555 11.66547775268555 C 8.634166717529297 14.6967887878418 6.254467010498047 18.22614288330078 4.592475891113281 22.15552139282227 C 2.872230529785156 26.2226448059082 2 30.54414367675781 2 35 C 2 39.45585632324219 2.872230529785156 43.7773551940918 4.592475891113281 47.84447860717773 C 6.254467010498047 51.77385711669922 8.634166717529297 55.3032112121582 11.66547775268555 58.33452224731445 C 14.6967887878418 61.3658332824707 18.22614288330078 63.74553298950195 22.15552139282227 65.40752410888672 C 26.2226448059082 67.12776947021484 30.54414367675781 68 35 68 C 39.45585632324219 68 43.7773551940918 67.12776947021484 47.84447860717773 65.40752410888672 C 51.77385711669922 63.74553298950195 55.3032112121582 61.3658332824707 58.33452224731445 58.33452224731445 C 61.3658332824707 55.3032112121582 63.74553298950195 51.77385711669922 65.40752410888672 47.84447860717773 C 67.12776947021484 43.7773551940918 68 39.45585632324219 68 35 C 68 30.54414367675781 67.12776947021484 26.2226448059082 65.40752410888672 22.15552139282227 C 63.74553298950195 18.22614288330078 61.3658332824707 14.6967887878418 58.33452224731445 11.66547775268555 C 55.3032112121582 8.634166717529297 51.77385711669922 6.254467010498047 47.84447860717773 4.592475891113281 C 43.7773551940918 2.872230529785156 39.45585632324219 2 35 2 M 35 0 C 54.3299674987793 0 70 15.6700325012207 70 35 C 70 54.3299674987793 54.3299674987793 70 35 70 C 15.6700325012207 70 0 54.3299674987793 0 35 C 0 15.6700325012207 15.6700325012207 0 35 0 Z" stroke="none" fill="#0686d8"/></g><g transform="translate(14.13 11.522)"><g transform="matrix(1, 0, 0, 1, -15, -12)" filter="url(#a)"><path d="M98.628,12.913V41.739a5.216,5.216,0,0,1-5.217,5.217h-31.3a5.216,5.216,0,0,1-5.217-5.217V5.217A5.216,5.216,0,0,1,62.106,0H85.715Z" transform="translate(-41.89 12)" fill="#0686d8"/></g><g transform="matrix(1, 0, 0, 1, -15, -12)" filter="url(#c)"><path d="M685.511,7.7V0l12.913,12.913h-7.7A5.216,5.216,0,0,1,685.511,7.7" transform="translate(-641.68 12)" fill="#0686d8"/></g><path d="M337.362,351.729A4.428,4.428,0,0,1,339.475,348a4.567,4.567,0,0,0-3.579-1.938c-1.523-.154-2.973.9-3.746.9s-1.964-.874-3.228-.85a4.785,4.785,0,0,0-4.046,2.452c-1.726,2.995-.443,7.43,1.239,9.858.822,1.188,1.8,2.524,3.089,2.476,1.239-.049,1.709-.8,3.2-.8s1.919.8,3.231.776c1.333-.025,2.178-1.21,2.993-2.4a10.768,10.768,0,0,0,1.355-2.784A4.32,4.32,0,0,1,337.362,351.729Zm-2.464-7.272a4.3,4.3,0,0,0,1.017-3.124,4.38,4.38,0,0,0-2.88,1.482,4.1,4.1,0,0,0-1.04,3.026,3.627,3.627,0,0,0,2.9-1.382Z" transform="translate(-311.805 -325.681)" fill="#fff"/></g></g></svg>