<svg xmlns="http://www.w3.org/2000/svg" width="53.955" height="53.955" viewBox="0 0 53.955 53.955"><g transform="translate(-7.573)"><g transform="translate(7.573)"><g transform="translate(0)" fill="none" stroke="#0686d8" stroke-width="2"><circle cx="26.978" cy="26.978" r="26.978" stroke="none"/><circle cx="26.978" cy="26.978" r="25.978" fill="none"/></g><g transform="translate(10.993 10.538)"><path d="M1004.628,317.7m-1.392,0a1.392,1.392,0,1,0,1.392-1.392A1.392,1.392,0,0,0,1003.236,317.7Z" transform="translate(-969.879 -305.786)" fill="#d2e9f7"/><path d="M207.068.74m-.74,0a.74.74,0,1,0,.74-.74.74.74,0,0,0-.74.74Z" transform="translate(-199.468 0)" fill="#d2e9f7"/><path d="M9.749,447.159m-9.749,0a9.749,9.749,0,1,0,9.749-9.749A9.749,9.749,0,0,0,0,447.159Z" transform="translate(0 -422.866)" fill="#d2e9f7"/><path d="M20.1,40.043A16.284,16.284,0,1,1,36.388,23.759,16.306,16.306,0,0,1,20.1,40.043Zm0-30.722A14.439,14.439,0,1,0,34.543,23.759,14.454,14.454,0,0,0,20.1,9.321ZM17.7,33.9a.906.906,0,0,1-.442-.11.933.933,0,0,1-.442-1.077L18.79,26.14H13.344a.922.922,0,0,1-.713-1.5l8.7-10.677a.928.928,0,0,1,1.132-.243.911.911,0,0,1,.475,1.049L21.287,21.3h5.579a.922.922,0,0,1,.7,1.519L18.4,33.575a.922.922,0,0,1-.7.32Zm-2.408-9.6h4.739a.928.928,0,0,1,.884,1.188L19.839,29.04l5.026-5.894H20.1A.922.922,0,0,1,19.21,22l.922-3.651Z" transform="translate(-3.694 -7.227)" fill="#0686d8"/></g></g></g></svg>