<svg xmlns="http://www.w3.org/2000/svg" width="14.063" height="14.028" viewBox="0 0 14.063 14.028"><path d="M140,8.711a.439.439,0,0,1-.44-.44,4.391,4.391,0,1,0-8.782,0,.44.44,0,1,1-.88,0,5.271,5.271,0,1,1,10.543,0A.441.441,0,0,1,140,8.711Zm-4.382,8.318h-.907a1.318,1.318,0,0,1,0-2.636h.907a1.318,1.318,0,0,1,0,2.636Zm-.907-1.756a.438.438,0,0,0,0,.877h.907a.438.438,0,1,0,0-.877Z" transform="translate(-128.128 -3)" fill="#fff"/><path d="M3.213,357.079H2.319A1.322,1.322,0,0,1,1,355.76v-2.64A1.322,1.322,0,0,1,2.319,351.8h.893a.439.439,0,0,1,.44.44v4.4A.439.439,0,0,1,3.213,357.079Zm-.893-4.4a.441.441,0,0,0-.44.44v2.64a.441.441,0,0,0,.44.44h.454v-3.52Zm11.424,4.4h-.88a.439.439,0,0,1-.44-.44v-4.4a.439.439,0,0,1,.44-.44h.88a1.322,1.322,0,0,1,1.319,1.319v2.64A1.322,1.322,0,0,1,13.743,357.079Zm-.44-.88h.44a.441.441,0,0,0,.44-.44v-2.64a.441.441,0,0,0-.44-.44H13.3Z" transform="translate(-1 -347.006)" fill="#fff"/><path d="M147.282,691.517a3.285,3.285,0,0,1-3.285-3.3.219.219,0,0,1,.22-.219h0a.219.219,0,0,1,.219.221,2.844,2.844,0,0,0,2.844,2.857h.455a.22.22,0,0,1,0,.44h-.449S147.285,691.517,147.282,691.517Z" transform="translate(-142.032 -678.585)" fill="#fff"/></svg>