<svg xmlns="http://www.w3.org/2000/svg" width="53.019" height="55.116" viewBox="0 0 53.019 55.116"><path d="M91.373,112.768ZM81.1,92.758v16.037l10.273,3.968v.006l.074-15.748Zm26.119-21.579,9.436-4.054,2.159.769-9.578,4.115,12.61,5.192-2.153.861.1.037,2.116-.861-.08-.031,10.943-4.349L118.82,67.894l.123-.055-2.184-.757-.1.043L107.858,64l-9.645,3.463-.08-.031-2.184.8.055.025,2.214-.794Z" transform="translate(-81.1 -64)" fill="#fa965a"/><path d="M142.991,177.994l-1.6.621V162.868l-13.109,5.278.025,15.52-.806.314-.8-.308.018-15.366-13.822-5.7.012,15.735-1.642-.634v.025l1.642.652v-.043l13.791,5.333v.055l.757.326.849-.3v-.08l13.084-5.056v.074l1.6-.6v-.08l11.023-4.263V157.787l-11.066,4.454Zm-30.043-35.8-.08.037,2.116.824.086-.037,12.426,4.792,12.094-4.8-12.475-5.186-12.051,5.192-2.122-.824,12.161-5.2-9.2-3.783-13.6,4.878Z" transform="translate(-100.996 -128.943)" fill="#fa965a"/><path d="M524.6,362.423l13.109-5.278V342.609L524.6,347.678Zm13.619-20.017-.511.2.5-.2,1.058-.406V342Z" transform="translate(-497.319 -324.899)" fill="#0686d8"/><path d="M123.052,276.781v14.511l11.066-4.454V272.5Zm-15.446,5.973.775-.3Zm-14.548-5.721-1.642-.627v.08L81.1,272.5v14.142l10.347,4.368-.031-14.517,1.642.634L93,291.649l13.822,5.7V282.453l.781.3-14.548-5.641Z" transform="translate(-81.1 -259.674)" fill="#0686d8"/></svg>