<svg xmlns="http://www.w3.org/2000/svg" xmlns:xlink="http://www.w3.org/1999/xlink" width="70" height="70" viewBox="0 0 70 70"><defs><filter id="a" x="1.715" y="9.266" width="47.282" height="57.466" filterUnits="userSpaceOnUse"><feOffset dy="3" input="SourceAlpha"/><feGaussianBlur stdDeviation="3" result="b"/><feFlood flood-opacity="0.161"/><feComposite operator="in" in2="b"/><feComposite in="SourceGraphic"/></filter><filter id="c" x="13.496" y="22.061" width="54.788" height="44.672" filterUnits="userSpaceOnUse"><feOffset dy="3" input="SourceAlpha"/><feGaussianBlur stdDeviation="3" result="d"/><feFlood flood-opacity="0.161"/><feComposite operator="in" in2="d"/><feComposite in="SourceGraphic"/></filter></defs><g transform="translate(0.063 -0.469)"><g transform="translate(-0.063 0.469)" fill="none" stroke="#0686d8" stroke-width="2"><circle cx="35" cy="35" r="35" stroke="none"/><circle cx="35" cy="35" r="34" fill="none"/></g><g transform="translate(10.652 15.735)"><g transform="matrix(1, 0, 0, 1, -10.72, -15.27)" filter="url(#a)"><path d="M21.359,38.191a1.308,1.308,0,0,1-1.345,1.272H9.268a1.275,1.275,0,1,1,0-2.544H20.014a1.308,1.308,0,0,1,1.345,1.272Zm0-3.819a1.308,1.308,0,0,1-1.345,1.272H9.268a1.275,1.275,0,1,1,0-2.547H20.014a1.311,1.311,0,0,1,1.345,1.275ZM14.638,0A14.812,14.812,0,0,0,2.568,23.147a1.123,1.123,0,0,0,.2.471l5.37,7.65a1.345,1.345,0,0,0,.744.519c0,.018.018.033.024.052H20.369l.039-.058a1.336,1.336,0,0,0,.726-.513l5.373-7.65a1.214,1.214,0,0,0,.206-.471A14.812,14.812,0,0,0,14.638,0Zm7.149,16.7a6.954,6.954,0,0,1-.328,1.421.543.543,0,0,1-.607.358,2.055,2.055,0,0,0-.477-.046,1.958,1.958,0,0,0-1.709,2.79.54.54,0,0,1-.2.683,7.212,7.212,0,0,1-1.412.683.543.543,0,0,1-.662-.261,1.964,1.964,0,0,0-3.485,0,.537.537,0,0,1-.653.258,7.625,7.625,0,0,1-1.348-.641.546.546,0,0,1-.216-.692A1.967,1.967,0,0,0,9.01,18.438a2.031,2.031,0,0,0-.546.052.54.54,0,0,1-.637-.352A7.286,7.286,0,0,1,7.489,16.7a.54.54,0,0,1,.4-.607,1.967,1.967,0,0,0,1.481-1.9,1.943,1.943,0,0,0-.735-1.518.534.534,0,0,1-.115-.7,7.024,7.024,0,0,1,.962-1.214.543.543,0,0,1,.722-.043,1.958,1.958,0,0,0,3.178-1.548.543.543,0,0,1,.48-.543,7.173,7.173,0,0,1,.771-.042,4.642,4.642,0,0,1,.741.039.54.54,0,0,1,.489.537,1.269,1.269,0,0,0,0,.152A1.961,1.961,0,0,0,19.052,10.7a.54.54,0,0,1,.726.039,6.982,6.982,0,0,1,.965,1.214.531.531,0,0,1-.1.707,1.961,1.961,0,0,0,.741,3.43.543.543,0,0,1,.4.607Z" transform="translate(10.72 15.27)" fill="#0686d8"/></g><g transform="matrix(1, 0, 0, 1, -10.72, -15.27)" filter="url(#c)"><path d="M311.393,334.855a2.872,2.872,0,1,1-.842-2.041A2.86,2.86,0,0,1,311.393,334.855Zm29.779,2.456H324.632a1.336,1.336,0,0,0-1.141,1.418v18.517c0,1.8,1.694,1.442,2.3,1.166l6.044-2.732a3.1,3.1,0,0,1,2.222,0l6.442,2.853a1.392,1.392,0,0,0,1.961-1.445V338.729A1.445,1.445,0,0,0,341.173,337.311ZM335.982,351.7l-3.163-1.666-3.127,1.739.562-3.613-2.571-2.526,3.509-.564,1.539-3.3,1.609,3.263,3.521.486-2.52,2.583Z" transform="translate(-283.18 -303.91)" fill="#0686d8"/></g></g></g></svg>