<svg xmlns="http://www.w3.org/2000/svg" width="51.183" height="49.343" viewBox="0 0 51.183 49.343"><path d="M682.183,854.013a2.25,2.25,0,1,1-2.25,2.25,2.27,2.27,0,0,1,2.25-2.25m0-2.045a4.3,4.3,0,1,0,4.3,4.3,4.321,4.321,0,0,0-4.3-4.3Z" transform="translate(-644.038 -811.215)" fill="#fff"/><path d="M284.871,854.013a2.25,2.25,0,1,1-2.25,2.25,2.205,2.205,0,0,1,2.25-2.25m0-2.045a4.3,4.3,0,1,0,4.3,4.3,4.321,4.321,0,0,0-4.3-4.3Z" transform="translate(-266.566 -811.215)" fill="#fff"/><path d="M9.306,37.885a.629.629,0,0,1,.562.358l2.915,5.113H47.86a1.15,1.15,0,0,1,1.074.614,1.252,1.252,0,0,1,0,1.227L39.219,61.3a1.228,1.228,0,0,1-1.023.614H17.9l-3.221,5.164a2.658,2.658,0,0,0-.051,2.812,2.776,2.776,0,0,0,2.4,1.432H43.258a.665.665,0,1,1,0,1.329H17.181A4.133,4.133,0,0,1,13.5,66.366l3.426-5.522L6.852,39.266H2.71a.689.689,0,0,1-.665-.716.677.677,0,0,1,.665-.665h6.6m0-2.045H2.71a2.71,2.71,0,0,0,0,5.42H5.573l9.1,19.379-2.863,4.6a6.13,6.13,0,0,0,1.329,8.028,6.2,6.2,0,0,0,4.091,1.381H43.31a2.71,2.71,0,1,0,0-5.42H17.078a.621.621,0,0,1-.614-.358.709.709,0,0,1,0-.716l2.608-4.193H38.247a3.371,3.371,0,0,0,2.812-1.585L50.724,46.22a3.28,3.28,0,0,0-2.812-4.96H13.959l-2.352-4.091a2.731,2.731,0,0,0-2.3-1.329Z" transform="translate(0 -35.84)" fill="#fff"/></svg>