<svg xmlns="http://www.w3.org/2000/svg" width="53.908" height="53.908" viewBox="0 0 53.908 53.908"><g fill="none"><path d="M26.954,0A26.954,26.954,0,1,1,0,26.954,26.954,26.954,0,0,1,26.954,0Z" stroke="none"/><path d="M 26.95377922058105 2 C 23.58415985107422 2 20.31639862060547 2.659500122070313 17.24126052856445 3.960170745849609 C 14.27001953125 5.216899871826172 11.60115051269531 7.016437530517578 9.308788299560547 9.308788299560547 C 7.016437530517578 11.60115051269531 5.216899871826172 14.27001953125 3.960170745849609 17.24126052856445 C 2.659500122070313 20.31639862060547 2 23.58415985107422 2 26.95377922058105 C 2 30.32339859008789 2.659500122070313 33.59115982055664 3.960170745849609 36.66629791259766 C 5.216899871826172 39.63753890991211 7.016437530517578 42.3064079284668 9.308788299560547 44.59877014160156 C 11.60115051269531 46.89112091064453 14.27001953125 48.69065856933594 17.24126052856445 49.9473876953125 C 20.31639862060547 51.2480583190918 23.58415985107422 51.90755844116211 26.95377922058105 51.90755844116211 C 30.32339859008789 51.90755844116211 33.59115982055664 51.2480583190918 36.66629791259766 49.9473876953125 C 39.63753890991211 48.69065856933594 42.3064079284668 46.89112091064453 44.59877014160156 44.59877014160156 C 46.89112091064453 42.3064079284668 48.69065856933594 39.63753890991211 49.9473876953125 36.66629791259766 C 51.2480583190918 33.59115982055664 51.90755844116211 30.32339859008789 51.90755844116211 26.95377922058105 C 51.90755844116211 23.58415985107422 51.2480583190918 20.31639862060547 49.9473876953125 17.24126052856445 C 48.69065856933594 14.27001953125 46.89112091064453 11.60115051269531 44.59877014160156 9.308788299560547 C 42.3064079284668 7.016437530517578 39.63753890991211 5.216899871826172 36.66629791259766 3.960170745849609 C 33.59115982055664 2.659500122070313 30.32339859008789 2 26.95377922058105 2 M 26.95377922058105 0 C 41.83993911743164 0 53.90755844116211 12.06761932373047 53.90755844116211 26.95377922058105 C 53.90755844116211 41.83993911743164 41.83993911743164 53.90755844116211 26.95377922058105 53.90755844116211 C 12.06761932373047 53.90755844116211 0 41.83993911743164 0 26.95377922058105 C 0 12.06761932373047 12.06761932373047 0 26.95377922058105 0 Z" stroke="none" fill="#0686d8"/></g><g transform="translate(9.728 6.08)"><path d="M99.966,13.431m-13.431,0A13.431,13.431,0,1,0,99.966,0,13.431,13.431,0,0,0,86.535,13.431Z" transform="translate(-86.535 0)" fill="#d2e9f7"/><path d="M111,39.593l-1.226-2.628s6.365-4.847,7.592-8.584a7.886,7.886,0,0,1-1.635.234,5.234,5.234,0,0,1-5.256-5.256V22.191a5.234,5.234,0,0,1,5.256-5.256,4.628,4.628,0,0,1,2.336.584v-.234a14.307,14.307,0,1,0-28.615-.058v.234A5.239,5.239,0,0,1,96.463,19.8a5.524,5.524,0,0,1,.584,2.336V23.3a5.234,5.234,0,0,1-5.256,5.256,5.313,5.313,0,0,1-5.139-4.029,1.728,1.728,0,0,1-.117-.584V17.227a17.227,17.227,0,1,1,34.454,0v6.716c0,10.979-9.986,15.65-9.986,15.65ZM89.455,23.359a2.336,2.336,0,1,0,4.672,0V22.191a2.336,2.336,0,1,0-4.672,0Zm28.615-1.168a2.336,2.336,0,1,0-4.672,0v1.168a2.336,2.336,0,1,0,4.672,0Z" transform="translate(-86.536)" fill="#0686d8"/><path d="M581.231,882.608a2.805,2.805,0,0,1-2.686,2.92h-.175a2.92,2.92,0,1,1,2.862-2.92Z" transform="translate(-555.594 -844.066)" fill="#5fb0e5"/></g></svg>