<svg xmlns="http://www.w3.org/2000/svg" width="53.908" height="53.908" viewBox="0 0 53.908 53.908"><g transform="translate(-6.485)"><g transform="translate(0)"><g transform="translate(6.485)"><g transform="translate(0)" fill="none"><path d="M26.954,0A26.954,26.954,0,1,1,0,26.954,26.954,26.954,0,0,1,26.954,0Z" stroke="none"/><path d="M 26.95377922058105 2 C 23.58415985107422 2 20.31639862060547 2.659500122070313 17.24126052856445 3.960170745849609 C 14.27001953125 5.216899871826172 11.60115051269531 7.016437530517578 9.308788299560547 9.308788299560547 C 7.016437530517578 11.60115051269531 5.216899871826172 14.27001953125 3.960170745849609 17.24126052856445 C 2.659500122070313 20.31639862060547 2 23.58415985107422 2 26.95377922058105 C 2 30.32339859008789 2.659500122070313 33.59115982055664 3.960170745849609 36.66629791259766 C 5.216899871826172 39.63753890991211 7.016437530517578 42.3064079284668 9.308788299560547 44.59877014160156 C 11.60115051269531 46.89112091064453 14.27001953125 48.69065856933594 17.24126052856445 49.9473876953125 C 20.31639862060547 51.2480583190918 23.58415985107422 51.90755844116211 26.95377922058105 51.90755844116211 C 30.32339859008789 51.90755844116211 33.59115982055664 51.2480583190918 36.66629791259766 49.9473876953125 C 39.63753890991211 48.69065856933594 42.3064079284668 46.89112091064453 44.59877014160156 44.59877014160156 C 46.89112091064453 42.3064079284668 48.69065856933594 39.63753890991211 49.9473876953125 36.66629791259766 C 51.2480583190918 33.59115982055664 51.90755844116211 30.32339859008789 51.90755844116211 26.95377922058105 C 51.90755844116211 23.58415985107422 51.2480583190918 20.31639862060547 49.9473876953125 17.24126052856445 C 48.69065856933594 14.27001953125 46.89112091064453 11.60115051269531 44.59877014160156 9.308788299560547 C 42.3064079284668 7.016437530517578 39.63753890991211 5.216899871826172 36.66629791259766 3.960170745849609 C 33.59115982055664 2.659500122070313 30.32339859008789 2 26.95377922058105 2 M 26.95377922058105 0 C 41.83993911743164 0 53.90755844116211 12.06761932373047 53.90755844116211 26.95377922058105 C 53.90755844116211 41.83993911743164 41.83993911743164 53.90755844116211 26.95377922058105 53.90755844116211 C 12.06761932373047 53.90755844116211 0 41.83993911743164 0 26.95377922058105 C 0 12.06761932373047 12.06761932373047 0 26.95377922058105 0 Z" stroke="none" fill="#0686d8"/></g><g transform="translate(7.296 9.728)"><path d="M296.456,194.3a14.823,14.823,0,0,1-2.826-2.5,14.942,14.942,0,0,1-2.835,2.5,15.912,15.912,0,0,1-8.295,2.723v10.952a6.858,6.858,0,0,0,.16,1.382s1.34,8.436,10.97,12.795a19.394,19.394,0,0,0,10.063-10.063,11.018,11.018,0,0,0,1.053-4.114V197.024A15.882,15.882,0,0,1,296.456,194.3Z" transform="translate(-273.598 -189.397)" fill="#fff"/><path d="M314.324,409.786l2.093-4.486H313.44l-2.093,4.486Zm-9.245-4.486-2.093,4.486h2.977l2.092-4.486Zm7.157,0h-2.977l-2.092,4.486h2.977Zm-12.936,0v4.486h2.483l2.093-4.486Zm20.671,4.486V405.3H317.62l-2.093,4.486Z" transform="translate(-289.608 -392.858)" fill="#d2e9f7"/><path d="M113.223,173.456a19.54,19.54,0,0,1-8.332-6.936c-.983-.329-1.928-.682-2.831-1.044a21.79,21.79,0,0,0,10.773,9.851,1.02,1.02,0,0,0,.781,0,21.139,21.139,0,0,0,7.81-5.6c-.785-.038-1.594-.1-2.417-.179A19.054,19.054,0,0,1,113.223,173.456Zm17.5-13.359a12.112,12.112,0,0,0-1.2-.936,24.353,24.353,0,0,0-3.306-1.909v-9.743a1.034,1.034,0,0,0-1.025-1.039,14.191,14.191,0,0,1-8.083-2.417,12,12,0,0,1-3.042-2.906,1.028,1.028,0,0,0-1.693,0,12.053,12.053,0,0,1-3.047,2.906,14.228,14.228,0,0,1-8.088,2.417,1.04,1.04,0,0,0-1.025,1.039v4.354c-.583.038-1.133.089-1.651.16a13.115,13.115,0,0,0-2.953.7,3.373,3.373,0,0,0-2.365,2.21,3.267,3.267,0,0,0,1.082,2.859l0,0c.019.019.033.038.052.056a15.382,15.382,0,0,0,3.832,2.77c.113.061.23.127.348.188.63.334,1.307.663,2.017.978a16.637,16.637,0,0,0,.861,2.417q1.255.543,2.647,1.044a18.465,18.465,0,0,1-1.213-2.516,62.345,62.345,0,0,0,8.643,2.553,59.934,59.934,0,0,0,9.927,1.387,20.075,20.075,0,0,1-1.6,2.017c.8.066,1.589.113,2.346.136.339-.428.64-.842.908-1.232.2-.287.386-.578.569-.875.654,0,1.279-.024,1.886-.066a17.4,17.4,0,0,0,3.978-.658c.235-.075.456-.15.663-.235a5.8,5.8,0,0,0,1.067-.555,4.758,4.758,0,0,0-.569-.757,5.146,5.146,0,0,1-1.161.55,15.722,15.722,0,0,1-4.039.715q-.614.042-1.27.056a14.5,14.5,0,0,0,2-6.494V158.3a21.033,21.033,0,0,1,3.306,2.027c.207.16.395.315.574.475.766.682,1.636,1.683,1.439,2.586a1.371,1.371,0,0,1-.169.4,5.309,5.309,0,0,1,.6.771,2.316,2.316,0,0,0,.484-.973C132.695,162.509,132.112,161.334,130.725,160.1Zm-32.056-.31-.1-.056a13.962,13.962,0,0,1-3.55-2.6s0,0-.009,0a3.619,3.619,0,0,1-.56-.757,1.75,1.75,0,0,1-.282-1.251c.226-1.03,1.834-1.8,4.4-2.163.513-.071,1.063-.127,1.651-.165v6.48a8.744,8.744,0,0,0,.118,1.354C99.751,160.356,99.191,160.073,98.669,159.787Zm25.675-.508a13.784,13.784,0,0,1-2.295,6.475,57.894,57.894,0,0,1-10.322-1.392,59.959,59.959,0,0,1-9.245-2.8,8.464,8.464,0,0,1-.386-2.285V148.327a15.912,15.912,0,0,0,8.295-2.723,14.929,14.929,0,0,0,2.835-2.5,14.984,14.984,0,0,0,2.826,2.5,15.882,15.882,0,0,0,8.29,2.723Z" transform="translate(-93.195 -140.7)" fill="#0686d8"/><path d="M125.556,443.2a15.628,15.628,0,0,0-4.589.861,5.741,5.741,0,0,0-1.166.6,4.678,4.678,0,0,0,.569.757,11.482,11.482,0,0,1,5.187-1.265Z" transform="translate(-118.549 -428.976)" fill="#5fb0e5"/><path d="M94.436,474.1a3.806,3.806,0,0,0,.56.757s0,0,.009,0a5.026,5.026,0,0,1-.569-.752h0Zm37.529,8.187a6.056,6.056,0,0,0-.6-.771c-.193-.207-.4-.418-.644-.63a20.519,20.519,0,0,0-4.561-2.873c-.019.127-.1.691-.16.973a19.162,19.162,0,0,1,4.1,2.605,7.552,7.552,0,0,1,.588.578,4.555,4.555,0,0,1,.569.757,1.764,1.764,0,0,1,.282,1.251c-.273,1.227-2.535,2.1-6.047,2.328-1.025.066-2.135.08-3.3.042-.757-.024-1.542-.071-2.346-.136a61.046,61.046,0,0,1-8.116-1.26,62.648,62.648,0,0,1-7.632-2.187q-1.39-.5-2.647-1.044c-1-.433-1.928-.884-2.774-1.345-3.089-1.688-4.773-3.433-4.5-4.66a1.321,1.321,0,0,1,.169-.4l0,0a4.852,4.852,0,0,1-.6-.766,2.316,2.316,0,0,0-.484.973,3.3,3.3,0,0,0,1.143,2.92,15.381,15.381,0,0,0,3.832,2.77,36.423,36.423,0,0,0,3.846,1.8q1.347.543,2.831,1.044a64.459,64.459,0,0,0,6.626,1.829A63.469,63.469,0,0,0,119,487.281c.828.08,1.636.141,2.417.179.691.033,1.359.052,2.008.052.734,0,1.444-.023,2.116-.066a15.5,15.5,0,0,0,4.641-.893,3.305,3.305,0,0,0,2.266-2.168,2.736,2.736,0,0,0-.489-2.1Z" transform="translate(-93.189 -458.423)" fill="#5fb0e5"/><path d="M117.3,504a0,0,0,0,1,0,0A0,0,0,0,1,117.3,504Z" transform="translate(-116.166 -486.917)" fill="#06f3ff"/></g></g></g></g></svg>