<svg xmlns="http://www.w3.org/2000/svg" width="9.829" height="9.829" viewBox="0 0 9.829 9.829"><path d="M243.885,238.808a.357.357,0,0,1-.1.234l-4.59,4.742a.3.3,0,0,1-.453,0l-4.59-4.742a.327.327,0,0,1,0-.468l.492-.509a.316.316,0,0,1,.226-.1.334.334,0,0,1,.226.1l3.871,4,3.871-4a.3.3,0,0,1,.453,0l.492.509a.354.354,0,0,1,.1.233Zm0-3.908a.357.357,0,0,1-.1.234l-4.59,4.742a.3.3,0,0,1-.453,0l-4.59-4.742a.327.327,0,0,1,0-.468l.492-.509a.316.316,0,0,1,.226-.1.334.334,0,0,1,.226.1l3.871,4,3.871-4a.3.3,0,0,1,.453,0l.492.509a.354.354,0,0,1,.1.233Z" transform="translate(-234.056 -234.056)" fill="#0686d8"/></svg>