<svg xmlns="http://www.w3.org/2000/svg" width="53.955" height="53.955" viewBox="0 0 53.955 53.955"><g transform="translate(-17.038)"><g transform="translate(17.038)"><g fill="none" stroke="#0686d8" stroke-width="2"><circle cx="26.978" cy="26.978" r="26.978" stroke="none"/><circle cx="26.978" cy="26.978" r="25.978" fill="none"/></g><g transform="translate(8.592 7.663)"><path d="M206.813,266.13m-18.457,0a18.457,18.457,0,1,0,18.457-18.457,18.457,18.457,0,0,0-18.457,18.457Z" transform="translate(-187.842 -246.958)" fill="#d2e9f7"/><path d="M387.875,357.537H387.1a1.968,1.968,0,1,0,0-3.932H374.872s1.626-4.082,1.622-6.016c0-.886.205-2.67-.342-3.521a2.086,2.086,0,0,0-2.011,0s-1.493,4.629-2.482,5.99c-.565.766-2.717,3.56-2.717,3.56H365.6l-1.75,12.69h4.278a1.588,1.588,0,0,1,1.13.462l1.96,2a1.874,1.874,0,0,0,1.343.565h11.184a1.968,1.968,0,0,0,0-3.932h2.062a1.968,1.968,0,1,0,0-3.932h2.066a1.968,1.968,0,0,0,0-3.936Z" transform="translate(-352.945 -337.403)" fill="#fff"/><path d="M549.967,378.043h.59a16.789,16.789,0,0,0,1.031-4.394c0-.522.068-1.361,0-2.139v.513c0,1.938-1.622,6.02-1.622,6.02Z" transform="translate(-528.04 -363.462)" fill="#f1f2f2"/><path d="M383.746,672.361H372.562a1.712,1.712,0,0,1-1.343-.766l-1.96-2.708a1.425,1.425,0,0,0-1.134-.646h-4.052l-.222,3.213h4.278a1.416,1.416,0,0,1,1.13.663l1.96,1.673a1.677,1.677,0,0,0,1.343.766h11.184c1.082,0,1.968-1.2,1.968-2.661a3.385,3.385,0,0,0-.184-1.1A2.04,2.04,0,0,1,383.746,672.361Z" transform="translate(-352.945 -642.622)" fill="#d2e9f7"/><path d="M712.765,564.266h-3.342v-2.058h3.342a.941.941,0,1,0,0-1.878h-3.342v-2.054h3.342a2.995,2.995,0,0,1,0,5.99Z" transform="translate(-678.054 -539.168)" fill="#0686d8"/><path d="M655.935,630.664H651.19V628.61h4.745a.941.941,0,0,0,0-1.878H651.19v-2.058h4.745a2.995,2.995,0,0,1,0,5.99Z" transform="translate(-623.269 -601.634)" fill="#0686d8"/><path d="M380.351,697.4H369.167a2.926,2.926,0,0,1-2.079-.856l-1.955-2a.56.56,0,0,0-.4-.167h-4.279v-2.054h4.279a2.631,2.631,0,0,1,1.865.783l1.96,2a.855.855,0,0,0,.608.257h11.184a.941.941,0,1,0,0-1.878H378.5v-2.054h1.853a2.995,2.995,0,1,1,0,5.99Z" transform="translate(-349.751 -664.44)" fill="#0686d8"/><path d="M411.637,342.549h-6.028V340.5h6.028a.941.941,0,1,0,0-1.878H397.9l.556-1.4a22.834,22.834,0,0,0,1.553-5.639v-.638a8.2,8.2,0,0,0-.086-2.109,2.282,2.282,0,0,0-.428,0,29.432,29.432,0,0,1-2.477,5.806c-.556.774-2.725,3.607-2.725,3.607l-.308.4H390.15v-2.054h2.837c.612-.8,1.964-2.567,2.392-3.14a30.875,30.875,0,0,0,2.332-5.695l.12-.248a2.064,2.064,0,0,1,1.844-.715h.034a2.063,2.063,0,0,1,1.861.736,6.437,6.437,0,0,1,.518,3.513v.56a18.56,18.56,0,0,1-1.172,4.989h10.743a2.995,2.995,0,0,1,0,5.99Z" transform="translate(-377.687 -321.387)" fill="#0686d8"/><path d="M210.369,473.093v16.733H197.315V473.093Z" transform="translate(-196.271 -459.03)" fill="#5fb0e5"/><path d="M194.811,474.612h-11.98a3.145,3.145,0,0,1-3.145-3.14V458.966a3.145,3.145,0,0,1,3.145-3.14h2.139v2.054h-2.139a1.087,1.087,0,0,0-1.087,1.087v12.506a1.087,1.087,0,0,0,1.087,1.087h9.926V457.879h-2.995v-2.054h5.049Z" transform="translate(-179.686 -442.785)" fill="#0686d8"/><path d="M280.619,455.826h2.452v2.054h-2.452Z" transform="translate(-274.642 -442.785)" fill="#0686d8"/><path d="M532.627,235.607h2.054v3.821h-2.054Z" transform="translate(-511.727 -235.607)" fill="#0686d8"/><path d="M569.5,248.168l1.908-3.305,1.779,1.027-1.908,3.305Z" transform="translate(-546.413 -244.315)" fill="#0686d8"/><path d="M601.229,289.428l3.305-1.908,1.027,1.779-3.305,1.908Z" transform="translate(-576.266 -284.445)" fill="#0686d8"/><path d="M619.183,351.93H623v2.054h-3.821Z" transform="translate(-593.157 -345.042)" fill="#0686d8"/><path d="M601.25,390.578l1.026-1.779,3.309,1.909-1.026,1.779Z" transform="translate(-576.286 -379.728)" fill="#0686d8"/><path d="M425.538,390.848l3.308-1.912,1.028,1.778-3.308,1.913Z" transform="translate(-410.979 -379.857)" fill="#0686d8"/><path d="M416.3,352h3.821v2.054H416.3Z" transform="translate(-402.293 -345.109)" fill="#0686d8"/><path d="M425.524,289.212l1.026-1.779,3.31,1.908-1.026,1.779Z" transform="translate(-410.966 -284.363)" fill="#0686d8"/><path d="M469.95,247.335l1.787-1.027,1.91,3.324-1.787,1.027Z" transform="translate(-452.761 -245.674)" fill="#0686d8"/></g></g></g></svg>