<?xml version="1.0" standalone="no"?><!DOCTYPE svg PUBLIC "-//W3C//DTD SVG 1.1//EN" "http://www.w3.org/Graphics/SVG/1.1/DTD/svg11.dtd"><svg t="1625195019240" class="icon" viewBox="0 0 1024 1024" version="1.1" xmlns="http://www.w3.org/2000/svg" p-id="4704" xmlns:xlink="http://www.w3.org/1999/xlink" width="64" height="64"><defs><style type="text/css"></style></defs><path d="M614.4512 330.368a51.2 51.2 0 1 1-0.0256 102.4256 51.2 51.2 0 0 1 0.0256-102.4256zM435.2512 330.368a51.2 51.2 0 1 1-0.0256 102.4256 51.2 51.2 0 0 1 0.0256-102.4256zM256.0512 330.368a51.2 51.2 0 1 1-0.0256 102.4256 51.2 51.2 0 0 1 0.0256-102.4256z" fill="#ffffff" p-id="4705"></path><path d="M380.9792 790.7072a25.5232 25.5232 0 0 1-22.4256-13.312l-86.9632-152.4736a25.6 25.6 0 0 1 44.4672-25.344l64.9472 113.8432 64.9728-113.8432a25.6 25.6 0 0 1 44.4672 25.344l-86.9888 152.4736a25.7024 25.7024 0 0 1-22.4256 13.312h-0.0512z" fill="#ffffff" p-id="4706"></path><path d="M706.9952 636.9024h-236.16a25.6 25.6 0 1 1 0-51.2h236.16c33.4592 0 60.6464-26.0608 60.6464-58.0608V235.0592c0-32-27.2128-58.0096-60.6464-58.0096H189.5168c-33.4336 0-60.6464 26.0096-60.6464 58.0096v292.5824c0 32 27.2128 58.0608 60.6464 58.0608h102.7328a25.6 25.6 0 1 1 0 51.2H189.5168c-61.6704 0-111.8464-48.9984-111.8464-109.2608V235.0592c0-60.2112 50.176-109.2096 111.8464-109.2096h517.4784c61.6704 0 111.8464 48.9984 111.8464 109.2096v292.5824c0 60.2624-50.176 109.2608-111.8464 109.2608zM641.2288 918.8608h-0.0512a25.2416 25.2416 0 0 1-10.3936-2.2272 25.2416 25.2416 0 0 1-11.9808-10.9568l-88.2944-152.8832a25.6 25.6 0 1 1 44.3392-25.6l66.3552 114.8672 66.3552-114.8672a25.5488 25.5488 0 0 1 34.9696-9.3696 25.5744 25.5744 0 0 1 9.3696 34.9696l-88.2944 152.8832a25.4208 25.4208 0 0 1-22.3744 13.184z" fill="#ffffff" p-id="4707"></path><path d="M834.0736 764.8h-103.168a25.6 25.6 0 1 1 0-51.2h103.168c33.6384 0 61.0304-24.3456 61.0304-54.2976V379.648c0-21.8624-14.6688-41.5232-37.3504-50.0736a25.6256 25.6256 0 0 1 17.9968-47.9232c42.8544 16.1024 70.5536 54.5792 70.5536 97.9968v279.6544c0 58.1632-50.3552 105.4976-112.2304 105.4976z m-282.5728 0h-64.512a25.6 25.6 0 1 1 0-51.2h64.512a25.6 25.6 0 1 1 0 51.2z" fill="#ffffff" p-id="4708"></path></svg>