<?xml version="1.0" standalone="no"?><!DOCTYPE svg PUBLIC "-//W3C//DTD SVG 1.1//EN" "http://www.w3.org/Graphics/SVG/1.1/DTD/svg11.dtd"><svg t="1624414549827" class="icon" viewBox="0 0 1095 1024" version="1.1" xmlns="http://www.w3.org/2000/svg" p-id="2470" xmlns:xlink="http://www.w3.org/1999/xlink" width="68.4375" height="64"><defs><style type="text/css"></style></defs><path d="M553.984 389.3248m-80.2304 0a80.2304 80.2304 0 1 0 160.4608 0 80.2304 80.2304 0 1 0-160.4608 0Z" fill="#FFB541" p-id="2471"></path><path d="M316.7744 742.4h-32a58.112 58.112 0 0 0-44.8 19.2L124.7744 921.6c-12.8 19.2 6.4 38.4 32 38.4l793.6 6.4c32 0 44.8-19.2 32-38.4l-128-160c-6.4-12.8-25.6-19.2-38.4-19.2h-32L316.7744 742.4z" fill="#BBE2FF" p-id="2472"></path><path d="M739.1744 396.8a178.8928 178.8928 0 0 1-179.2 179.2c-102.4 0-179.2-76.8-179.2-179.2s76.8-179.2 179.2-179.2 179.2 76.8 179.2 179.2z m-192-339.2c-172.8 0-307.2 140.8-307.2 313.6s198.4 518.4 307.2 518.4c121.6 0 320-352 313.6-524.8 0-172.8-140.8-307.2-313.6-307.2z" fill="#0091EB" p-id="2473"></path></svg>