<?xml version="1.0" standalone="no"?><!DOCTYPE svg PUBLIC "-//W3C//DTD SVG 1.1//EN" "http://www.w3.org/Graphics/SVG/1.1/DTD/svg11.dtd"><svg t="1623988407974" class="icon" viewBox="0 0 1024 1024" version="1.1" xmlns="http://www.w3.org/2000/svg" p-id="4094" xmlns:xlink="http://www.w3.org/1999/xlink" width="200" height="200"><defs><style type="text/css"></style></defs><path d="M731.7 451.8c0 21.8 14.5 35.6 35.6 35.6s35.6-14.5 35.6-35.6c-0.7-118.8-96.4-214.6-215.2-215.2-21.8 0-35.6 14.5-35.6 35.6 0 21.8 14.5 35.6 35.6 35.6 79.3 0.7 143.3 64.7 144 144z m143.2 0c0 21.8 14.5 35.6 35.6 35.6s35.6-14.5 35.6-35.6c0-197.4-161.7-358.5-358.5-358.5-21.8 0-35.6 14.5-35.6 35.6 0 21.8 14.5 35.6 35.6 35.6 158 0.1 287.3 129.5 287.3 287.3zM390.4 326.3C430 286.7 433.3 226 397.7 183l-111-140.5C251.1-4.4 182.4-11.7 136.2 24.6c-3.3 3.3-7.3 3.3-7.3 7.3l-97 97c-93.1 93.1 39.6 344.6 279.9 585s487.9 369.7 580.9 279.9l97-97c42.9-42.9 42.9-110.9 0-150.5l-7.3-7.3-139.8-111c-42.9-35.6-103.6-32.3-143.3 7.3L638.6 696c-64.7-39.6-122.1-82.5-172.3-132.7-50.2-50.2-93.1-107.6-132.7-172.3l56.8-64.7z m-50.2-97c10.6 14.5 10.6 35.6-3.3 46.9l-79.2 82.5c-11.2 11.2-13.9 28.4-7.3 42.9 42.3 77.9 95.7 149.2 157.8 211.9 62.7 62.7 134 115.5 211.9 157.8 14.5 6.6 31.7 4 42.9-7.3l82.5-82.5c14.5-14.5 32.3-14.5 46.9-3.3l140 114.9s3.3 0 3.3 3.3c13.9 13.2 14.5 35 1.3 48.9l-1.3 1.3-97 97c-46.9 46.9-268.7-72-480.6-279.9C146.8 455.1 31.9 229.3 78.8 182.4L179.1 82.1c14.5-10.6 39.6-10.6 50.2 7.3l110.9 139.9z" p-id="4095"></path></svg>