<?xml version="1.0" standalone="no"?><!DOCTYPE svg PUBLIC "-//W3C//DTD SVG 1.1//EN" "http://www.w3.org/Graphics/SVG/1.1/DTD/svg11.dtd"><svg t="1624329560578" class="icon" viewBox="0 0 1024 1024" version="1.1" xmlns="http://www.w3.org/2000/svg" p-id="6091" xmlns:xlink="http://www.w3.org/1999/xlink" width="64" height="64"><defs><style type="text/css"></style></defs><path d="M505.085125 989.160858c-18.875281 0-30.534954-0.061945-31.493105-0.06694H75.333774c-16.527361 0-29.973451-13.44609-29.973452-29.973451V52.953097c0-16.527361 13.44609-29.973451 29.973452-29.973451h757.998608c16.527361 0 29.973451 13.44609 29.973452 29.973451v577.182765c0 11.036225-8.946076 19.982301-19.982301 19.982301s-19.982301-8.946076-19.982301-19.982301V62.944248H85.324924v886.184069h388.44294c0.653421 0.002997 66.291283 0.371671 145.405208-0.653421l0.263767-0.000999c10.916331 0 19.834432 8.776227 19.975307 19.72353 0.143873 11.035226-8.686306 20.097199-19.721532 20.239073-46.120149 0.597471-87.696324 0.724358-114.605489 0.724358zM844.880154 986.626104c-11.036225 0-19.982301-8.946076-19.982301-19.982301V726.063895c0-11.036225 8.946076-19.982301 19.982301-19.982301s19.982301 8.946076 19.982301 19.982301V966.643803c0 11.035226-8.946076 19.982301-19.982301 19.982301z" p-id="6092"></path><path d="M965.171607 866.33565H724.590699c-11.036225 0-19.982301-8.946076-19.9823-19.982301s8.946076-19.982301 19.9823-19.982301h240.580908c11.035226 0 19.982301 8.946076 19.982301 19.982301s-8.947075 19.982301-19.982301 19.982301zM700.066422 280.010982H208.599734c-11.036225 0-19.982301-8.946076-19.9823-19.9823 0-11.035226 8.946076-19.982301 19.9823-19.982301h491.466688c11.036225 0 19.982301 8.947075 19.9823 19.982301 0 11.036225-8.946076 19.982301-19.9823 19.9823zM700.066422 739.603902H208.599734c-11.036225 0-19.982301-8.946076-19.9823-19.982301 0-11.035226 8.946076-19.982301 19.9823-19.982301h491.466688c11.036225 0 19.982301 8.947075 19.9823 19.982301 0 11.036225-8.946076 19.982301-19.9823 19.982301zM700.066422 509.807442H208.599734c-11.036225 0-19.982301-8.946076-19.9823-19.982301 0-11.035226 8.946076-19.982301 19.9823-19.982301h491.466688c11.036225 0 19.982301 8.947075 19.9823 19.982301 0 11.036225-8.946076 19.982301-19.9823 19.982301z" p-id="6093"></path></svg>